<?xml version="1.0" encoding="utf-8"?>
<!-- Generator: Adobe Illustrator 24.0.0, SVG Export Plug-In . SVG Version: 6.00 Build 0)  -->
<svg version="1.1" id="Calque_1" xmlns="http://www.w3.org/2000/svg" xmlns:xlink="http://www.w3.org/1999/xlink" x="0px" y="0px"
	 viewBox="0 0 48 48" style="enable-background:new 0 0 48 48;" xml:space="preserve">
<style type="text/css">
	.st0{fill:#B51F1F;}
</style>
<path class="st0" d="M22,2c-1.7,0-3,1.3-3,3v1H9C7.9,6,7,6.9,7,8c0,0.2,0,0.9,0,1c0,0.5,0.4,1,1,1h32c0.5,0,1-0.5,1-1
	c0-0.1,0-0.8,0-1c0-1.1-0.9-2-2-2H29V5c0-1.7-1.3-3-3-3H22z M22,4h4c0.6,0,1,0.5,1,1v1h-6V5C21,4.5,21.5,4,22,4z M9,7
	c1.9,0,6.7,0.1,6.7,0.7c0,0.5-4.8,1.3-6.6,1.3C8.5,9,8,8.6,8,8.1S8.4,7,9,7z M6,11c-0.6,0-1,0.5-1,1v1c0,0.5,0.4,1,1,1l0,7
	c0,0.6,0.4,1,1,1c0.6,0,1-0.4,1-1v-7h1l1.8,30h1.7c0.3,0,0.5,0.2,0.5,0.5c0,0.3-0.2,0.5-0.5,0.5h-1.7l0.1,2C9.8,47,7,47.2,7,47.5
	c0,0.3,2.9,0.5,4,0.5h26c0,0,0,0,0,0c1.1,0,4-0.2,4-0.5c0-0.3-2.8-0.5-3.9-0.5l0.1-2h-1.7c-0.3,0-0.5-0.2-0.5-0.5
	c0-0.3,0.2-0.5,0.5-0.5h1.8L39,14h1v7c0,0.6,0.4,1,1,1c0.6,0,1-0.4,1-1v-7c0.5,0,1-0.5,1-1v-1c0-0.5-0.5-1-1-1h-2H8H6z M35.1,17
	c0.8,0,1.3,0.9,1.2,2l-1,21.5c-0.1,0.9-0.5,1.5-1.2,1.5c-0.7,0-1.1-0.7-1.1-1.6L33.8,19C33.9,17.9,34.2,17,35.1,17z M12.9,17
	c0.8,0,1.2,0.9,1.3,2L15,40.4c0,0.9-0.4,1.6-1.1,1.6c-0.7,0-1.1-0.7-1.2-1.5l-1-21.5C11.7,17.9,12.1,17,12.9,17z M20,17
	c1.1,0,2,0.9,2,2v21.4c0,0.9-0.7,1.6-1.6,1.6c-0.9,0-1.6-0.7-1.6-1.5L18,19.2c0-0.1,0-0.1,0-0.2C18,17.9,18.9,17,20,17z M28,17
	c1.1,0,2,0.9,2,2c0,0.1,0,0.1,0,0.2l-0.8,21.3c0,0.9-0.7,1.5-1.6,1.5c-0.9,0-1.6-0.7-1.6-1.6V19C26,17.9,26.9,17,28,17z"/>
</svg>
